<svg width="151" height="151" viewBox="0 0 151 151" fill="none" xmlns="http://www.w3.org/2000/svg">
<path d="M75.1755 3.53326e-05C74.0625 -0.00596467 73.452 0.753035 73.281 1.64104L68.6835 17.148C57.7397 18.3735 47.3681 22.6787 38.7735 29.5635C33.999 26.9715 29.226 24.3675 24.4485 21.789C23.5635 21.312 22.7895 21.3495 22.0725 22.0695C21.3555 22.7895 21.5595 23.85 21.9645 24.615L29.619 38.715C22.6992 47.3212 18.3708 57.7184 17.139 68.6925C11.919 70.2405 6.69151 71.775 1.47901 73.3335C0.519013 73.6215 -0.00298714 74.1945 1.28592e-05 75.2115C0.00301286 76.227 0.895513 76.8345 1.72351 77.0895L17.13 81.654C18.327 92.6518 22.6338 103.081 29.5455 111.719C26.94 116.522 24.3195 121.322 21.726 126.126C21.2505 127.011 21.288 127.782 22.008 128.499C22.728 129.216 23.7885 129.015 24.5535 128.61L38.733 120.915C47.3357 127.824 57.7249 132.145 68.6895 133.374C70.2375 138.594 71.775 143.823 73.3335 149.037C73.6215 149.997 74.1945 150.519 75.2115 150.516C76.227 150.513 76.8345 149.621 77.0895 148.793L81.654 133.386C92.6768 132.185 103.126 127.856 111.768 120.909L126.006 128.64C127.04 129.165 127.737 129.258 128.529 128.475C129.32 127.694 129.216 126.723 128.709 125.975L120.959 111.689C127.855 103.059 132.156 92.6458 133.359 81.6645L148.85 77.0745C149.951 76.716 150.51 76.2885 150.515 75.1755C150.522 74.0625 149.763 73.452 148.875 73.281L133.316 68.6685C132.087 57.7161 127.776 47.3369 120.885 38.736L128.579 24.5655C129.104 23.5335 129.197 22.8345 128.414 22.0425C127.508 21.255 126.747 21.492 125.913 21.864L111.716 29.5725C103.086 22.643 92.6561 18.322 81.654 17.118L77.073 1.66804C76.7145 0.565535 76.2885 0.00603533 75.1755 3.53326e-05ZM75.171 7.85704V66.258C73.65 66.2727 72.1575 66.6727 70.833 67.4205L61.467 55.5525L75.171 7.85704ZM83.046 21.8235C91.8854 23.102 100.266 26.565 107.43 31.899L88.9965 41.904L83.046 21.8235ZM67.2855 21.87L61.3695 41.8275C55.2705 38.511 49.17 35.2095 43.0695 31.896C50.1891 26.6055 58.5083 23.1609 67.284 21.87M27.5625 27.5625L56.9145 56.859L56.8995 56.904L45.6855 60.228L27.5625 27.5625ZM93.5625 56.8875L93.4215 56.8485L90.123 45.7185L122.853 27.5985L93.5625 56.8875ZM118.568 43.002C123.886 50.1371 127.349 58.4822 128.643 67.287L108.609 61.347L118.568 43.002ZM31.9485 43.017L41.901 61.3515L21.849 67.2945C23.1516 58.4901 26.6222 50.1475 31.9485 43.017ZM94.773 61.416L142.656 75.1725H84.258C84.2431 73.6352 83.8346 72.1272 83.0715 70.7925L94.773 61.416ZM66.258 75.1725V75.258C66.2584 76.7593 66.6343 78.2367 67.3515 79.5555L55.503 88.881L43.761 85.518L7.76701 75.2115L66.258 75.1725ZM128.693 83.0445C127.414 91.876 123.956 100.25 118.629 107.409L108.633 88.989L128.693 83.0445ZM21.8445 83.0505L41.877 88.986C38.5365 95.13 35.2125 101.276 31.875 107.421C26.5591 100.257 23.1118 91.8811 21.8445 83.0505ZM79.599 83.139L88.9305 94.824L85.5375 106.67L75.2085 142.749L75.1695 84.255C76.755 84.258 78.399 83.844 79.599 83.139ZM104.816 90.12L122.972 122.918L93.522 93.468L104.816 90.12ZM56.886 93.5655L60.231 104.849L27.498 123.009L56.886 93.5655ZM89.01 108.554L107.487 118.589C100.308 123.933 91.9067 127.398 83.0475 128.669L89.01 108.554ZM61.353 108.633C63.3285 115.314 65.316 121.985 67.293 128.664C58.4977 127.362 50.1634 123.896 43.038 118.578L61.353 108.633Z" fill="#808080"/>
</svg>
