<svg width="35" height="49" viewBox="0 0 35 49" fill="none" xmlns="http://www.w3.org/2000/svg">
<path d="M17.1875 0C7.69893 0 0 6.92979 0 15.4688C0 29.2188 17.1875 48.125 17.1875 48.125C17.1875 48.125 34.375 29.2188 34.375 15.4688C34.375 6.92979 26.6761 0 17.1875 0ZM17.1875 24.0625C15.8278 24.0625 14.4985 23.6593 13.368 22.9039C12.2374 22.1484 11.3562 21.0747 10.8358 19.8184C10.3155 18.5622 10.1793 17.1799 10.4446 15.8463C10.7099 14.5126 11.3647 13.2876 12.3261 12.3261C13.2876 11.3647 14.5126 10.7099 15.8463 10.4446C17.1799 10.1793 18.5622 10.3155 19.8184 10.8358C21.0747 11.3562 22.1484 12.2374 22.9039 13.368C23.6593 14.4985 24.0625 15.8278 24.0625 17.1875C24.0605 19.0103 23.3355 20.7578 22.0467 22.0467C20.7578 23.3355 19.0103 24.0605 17.1875 24.0625Z" fill="#EBB34D"/>
</svg>
